<svg xmlns="http://www.w3.org/2000/svg" viewBox="0 0 1200 800">
<defs><linearGradient id="g" x1="0" y1="0" x2="0" y2="1"><stop stop-color="#be554b"/><stop offset=".48" stop-color="#473045"/><stop offset="1" stop-color="#11151d"/></linearGradient></defs>
<rect width="1200" height="800" fill="url(#g)"/>
<circle cx="920" cy="180" r="90" fill="#f6d2ae"/>
<g fill="#20242c"><rect x="50" y="330" width="170" height="470"/><rect x="245" y="260" width="210" height="540"/><rect x="480" y="390" width="145" height="410"/><rect x="650" y="220" width="230" height="580"/><rect x="905" y="360" width="260" height="440"/></g>
<g fill="#f1cc88" opacity=".8"><path d="M80 390h110v18H80zm0 55h110v18H80zm205-110h130v18H285zm0 60h130v18H285zm410-105h140v22H695zm0 70h140v22H695z"/></g>
<path d="M420 800l145-270h80l145 270zM0 720l390-190 40 70-260 200zM1200 690L820 520l-40 75 260 205z" fill="#eee" opacity=".78"/>
<text x="65" y="110" fill="#fff" font-family="serif" font-size="52">Shibuya Sky</text>
<text x="65" y="270" fill="#fff" font-family="serif" font-size="120">渋谷</text>
</svg>