<svg xmlns="http://www.w3.org/2000/svg" viewBox="0 0 1200 800">
<defs><linearGradient id="g" x1="0" y1="0" x2="1" y2="1"><stop stop-color="#294b3f"/><stop offset="1" stop-color="#101b17"/></linearGradient></defs>
<rect width="1200" height="800" fill="url(#g)"/>
<circle cx="930" cy="170" r="105" fill="#e9d8b8" opacity=".9"/>
<g fill="#557562" opacity=".7"><path d="M0 640l130-390 120 390z"/><path d="M130 640l180-520 170 520z"/><path d="M780 640l170-500 150 500z"/><path d="M930 640l150-380 120 380z"/></g>
<g fill="#d35a49"><rect x="390" y="260" width="420" height="35" rx="5"/><rect x="435" y="350" width="330" height="29"/><rect x="470" y="270" width="30" height="410"/><rect x="700" y="270" width="30" height="410"/></g>
<path d="M530 800L590 430h20l60 370z" fill="#cbb798" opacity=".28"/>
<text x="65" y="110" fill="#fff" font-family="serif" font-size="52">Meiji Jingu</text>
<text x="65" y="270" fill="#fff" font-family="serif" font-size="120">明治神宮</text>
</svg>