<svg xmlns="http://www.w3.org/2000/svg" viewBox="0 0 1600 1000">
<defs><linearGradient id="g" x1="0" y1="0" x2="1" y2="1"><stop stop-color="#a9231d"/><stop offset=".62" stop-color="#33201c"/><stop offset="1" stop-color="#111"/></linearGradient></defs>
<rect width="1600" height="1000" fill="url(#g)"/><circle cx="1230" cy="210" r="150" fill="#f4d6c7"/>
<path d="M0 690 Q230 510 460 650 T850 610 T1220 590 T1600 620 V1000 H0Z" fill="#171412"/>
<g fill="none" stroke="#f8eee3" stroke-width="24"><path d="M875 290h460M940 390h330M1010 490h190"/><path d="M1090 230v420M1000 230v420M1180 230v420"/></g>
<path d="M130 640 C260 560 330 500 450 470" fill="none" stroke="#e6b4a7" stroke-width="12" stroke-linecap="round"/>
<g fill="#fff" opacity=".2"><circle cx="200" cy="150" r="6"/><circle cx="340" cy="225" r="5"/><circle cx="470" cy="135" r="8"/><circle cx="610" cy="250" r="5"/></g>
</svg>