<svg xmlns="http://www.w3.org/2000/svg" viewBox="0 0 1100 340">
      <rect width="1100" height="340" rx="34" fill="#f8f3ea"/>
      <text x="45" y="48" font-family="sans-serif" font-size="16" font-weight="800" letter-spacing="2" fill="#b83b32">OFFLINE MAPA DNE · 1. 8.</text>
      <path d="M103.0,170 C170.0,135 170.0,205 237.0,170" fill="none" stroke="#b6aa9d" stroke-width="8" stroke-linecap="round" stroke-dasharray="14 12"/><path d="M293.0,170 C360.0,135 360.0,205 427.0,170" fill="none" stroke="#b6aa9d" stroke-width="8" stroke-linecap="round" stroke-dasharray="14 12"/><path d="M483.0,170 C550.0,135 550.0,205 617.0,170" fill="none" stroke="#b6aa9d" stroke-width="8" stroke-linecap="round" stroke-dasharray="14 12"/><path d="M673.0,170 C740.0,135 740.0,205 807.0,170" fill="none" stroke="#b6aa9d" stroke-width="8" stroke-linecap="round" stroke-dasharray="14 12"/><path d="M863.0,170 C930.0,135 930.0,205 997.0,170" fill="none" stroke="#b6aa9d" stroke-width="8" stroke-linecap="round" stroke-dasharray="14 12"/>
        <g transform="translate(75.0,170)">
          <circle r="32" fill="#b83b32"/>
          <text y="8" text-anchor="middle" font-family="sans-serif" font-size="20" fill="white">H</text>
        </g>
        <text x="75.0" y="245" text-anchor="middle" font-family="sans-serif" font-size="18" font-weight="700" fill="#312b26">Tsutsuji-so</text>
        
        <g transform="translate(265.0,170)">
          <circle r="32" fill="#b83b32"/>
          <text y="8" text-anchor="middle" font-family="sans-serif" font-size="20" fill="white">輪</text>
        </g>
        <text x="265.0" y="100" text-anchor="middle" font-family="sans-serif" font-size="18" font-weight="700" fill="#312b26">Miyanoura</text>
        
        <g transform="translate(455.0,170)">
          <circle r="32" fill="#b83b32"/>
          <text y="8" text-anchor="middle" font-family="sans-serif" font-size="20" fill="white">A</text>
        </g>
        <text x="455.0" y="245" text-anchor="middle" font-family="sans-serif" font-size="18" font-weight="700" fill="#312b26">Red Pumpkin</text>
        
        <g transform="translate(645.0,170)">
          <circle r="32" fill="#b83b32"/>
          <text y="8" text-anchor="middle" font-family="sans-serif" font-size="20" fill="white">里</text>
        </g>
        <text x="645.0" y="100" text-anchor="middle" font-family="sans-serif" font-size="18" font-weight="700" fill="#312b26">Honmura</text>
        
        <g transform="translate(835.0,170)">
          <circle r="32" fill="#b83b32"/>
          <text y="8" text-anchor="middle" font-family="sans-serif" font-size="20" fill="white">A</text>
        </g>
        <text x="835.0" y="245" text-anchor="middle" font-family="sans-serif" font-size="18" font-weight="700" fill="#312b26">Yellow Pumpkin</text>
        
        <g transform="translate(1025.0,170)">
          <circle r="32" fill="#b83b32"/>
          <text y="8" text-anchor="middle" font-family="sans-serif" font-size="20" fill="white">海</text>
        </g>
        <text x="1025.0" y="100" text-anchor="middle" font-family="sans-serif" font-size="18" font-weight="700" fill="#312b26">Pláž</text>
        
    </svg>